<?xml version="1.0" standalone="no"?>
<!DOCTYPE svg PUBLIC "-//W3C//DTD SVG 20010904//EN"
 "http://www.w3.org/TR/2001/REC-SVG-20010904/DTD/svg10.dtd">
<svg version="1.0" xmlns="http://www.w3.org/2000/svg"
 width="1024.000000pt" height="1024.000000pt" viewBox="0 0 1024.000000 1024.000000"
 preserveAspectRatio="xMidYMid meet">

<g transform="translate(0.000000,1024.000000) scale(0.100000,-0.100000)"
fill="#000000" stroke="none">
<path d="M4590 9214 c-234 -22 -402 -68 -608 -164 -282 -134 -479 -304 -779
-676 -213 -264 -254 -301 -381 -343 -77 -26 -107 -26 -155 -1 -47 25 -73 25
-87 0 -15 -28 1 -76 46 -134 36 -47 164 -138 221 -157 l33 -11 -41 -46 c-98
-112 -159 -270 -167 -434 -9 -190 25 -288 153 -443 142 -172 128 -145 111
-213 -20 -77 -21 -272 -1 -409 18 -126 43 -228 101 -405 62 -192 73 -249 89
-440 15 -181 22 -206 73 -232 26 -13 29 -22 45 -118 29 -185 98 -361 199 -511
72 -107 200 -270 257 -326 30 -29 50 -56 44 -60 -127 -86 -166 -103 -659 -275
-877 -307 -1011 -357 -1205 -458 -208 -107 -345 -236 -433 -407 -47 -92 -138
-335 -204 -546 -73 -233 -132 -445 -132 -475 0 -32 31 -60 66 -60 47 0 63 29
114 208 122 426 250 773 325 883 121 177 313 291 765 456 70 25 712 251 1000
351 8 3 -21 -33 -65 -79 -287 -302 -425 -462 -425 -495 0 -37 43 -77 139 -130
50 -27 89 -52 88 -55 -1 -3 -56 -50 -122 -104 -214 -174 -255 -221 -255 -292
0 -41 91 -443 201 -888 97 -388 138 -537 157 -557 20 -24 74 -23 95 0 25 27
21 77 -17 209 -31 106 -115 442 -255 1023 l-50 205 22 24 c12 13 110 99 218
192 108 93 199 176 203 185 19 48 9 60 -104 125 -61 35 -117 69 -125 74 -11 8
4 30 77 110 386 423 480 522 540 571 65 52 68 54 68 30 0 -14 -7 -148 -15
-298 -32 -584 -37 -745 -42 -1396 -5 -648 3 -1004 27 -1131 9 -50 30 -71 70
-71 38 0 57 26 91 124 16 47 60 177 98 289 145 424 337 934 411 1091 l33 69
86 -6 c88 -5 180 -31 186 -51 3 -9 19 -245 66 -948 l10 -157 -81 -159 c-44
-87 -80 -168 -80 -180 0 -51 79 -83 112 -44 17 18 146 266 468 892 112 217
280 544 375 725 545 1045 711 1379 775 1561 37 106 70 236 70 282 0 17 3 32 7
32 13 0 146 -146 235 -258 50 -62 115 -134 144 -160 l54 -47 15 -170 c11 -136
55 -747 55 -777 0 -5 -10 -8 -22 -9 -13 0 -140 -28 -282 -62 -237 -57 -261
-64 -279 -89 -39 -52 -33 -59 257 -301 l117 -98 -49 -57 c-77 -91 -195 -239
-397 -502 -104 -135 -255 -328 -335 -430 -219 -275 -320 -417 -320 -449 0 -69
65 -94 112 -43 14 15 80 99 146 187 67 88 205 266 308 395 275 347 643 818
670 858 40 58 33 78 -50 157 -40 39 -110 99 -154 135 -44 36 -81 67 -81 71 -1
3 101 29 227 57 268 62 272 64 272 165 0 52 -25 407 -56 810 l-7 87 69 -29
c38 -16 215 -91 394 -166 179 -76 433 -182 565 -237 132 -54 294 -126 360
-158 282 -138 473 -306 573 -505 54 -106 104 -311 172 -704 33 -195 46 -221
106 -221 42 0 78 42 69 80 -4 14 -38 178 -75 365 -70 344 -107 475 -162 575
-81 145 -224 293 -384 399 -147 98 -323 183 -734 355 -613 256 -733 307 -875
368 -77 33 -151 65 -164 71 -25 12 -71 65 -189 214 -35 44 -121 139 -192 210
l-128 130 -2 79 c-2 97 0 176 5 184 2 4 31 -6 64 -23 33 -16 80 -32 104 -34
98 -11 205 71 272 211 18 39 59 166 90 281 60 224 162 595 202 735 32 110 35
245 10 346 l-19 72 40 58 c117 173 163 361 142 573 -19 179 -64 307 -176 493
-185 307 -447 590 -669 721 -87 52 -219 102 -308 118 -62 11 -69 15 -81 43
-19 46 -61 91 -159 173 -275 229 -565 358 -920 408 -107 15 -350 26 -427 19z
m324 -144 c292 -28 525 -111 781 -280 106 -70 236 -172 283 -222 l22 -25 -20
-44 c-11 -24 -20 -61 -20 -81 0 -21 -2 -38 -5 -38 -3 0 -28 11 -57 25 -28 14
-59 25 -69 25 -9 0 -52 16 -95 36 -283 129 -651 204 -996 204 -265 1 -443 -36
-636 -130 -223 -108 -465 -326 -646 -582 -87 -124 -182 -220 -257 -259 -87
-46 -96 -54 -104 -89 -9 -42 1 -66 34 -80 24 -10 35 -8 70 9 22 12 43 21 47
21 9 0 1 -98 -25 -295 -26 -201 -41 -399 -41 -532 0 -57 -4 -103 -9 -103 -13
0 -123 121 -214 234 -112 140 -140 205 -145 327 -5 115 12 192 65 299 31 60
58 94 140 174 105 102 120 129 87 157 -12 10 -22 10 -45 2 -33 -13 -101 3
-173 39 l-39 20 79 37 c43 21 104 58 135 83 30 26 134 142 229 260 202 247
367 416 498 508 340 240 712 339 1126 300z m161 -565 c182 -33 371 -89 558
-164 43 -17 91 -31 108 -31 17 0 68 -17 114 -39 250 -117 421 -307 480 -536
33 -130 38 -228 21 -471 -9 -126 -16 -279 -16 -339 0 -97 18 -259 36 -322 l6
-23 -149 0 c-82 0 -175 -5 -207 -11 l-58 -10 -50 49 c-49 49 -49 49 -51 120
-3 93 -21 116 -120 165 -97 46 -215 62 -391 52 -253 -14 -446 -57 -507 -113
-60 -53 -82 -96 -76 -144 5 -36 2 -43 -28 -69 -18 -16 -38 -43 -45 -60 -10
-24 -18 -29 -34 -25 -12 3 -68 6 -126 6 l-106 0 -11 43 c-6 23 -14 69 -18 101
-11 112 -73 181 -189 211 -139 35 -403 41 -634 14 -149 -17 -199 -52 -229
-160 -22 -79 -44 -80 -38 -1 3 31 10 127 15 212 6 85 17 202 25 260 48 355 57
413 71 445 29 70 257 358 379 480 209 209 408 316 680 366 127 24 449 20 590
-6z m1176 -95 c207 -75 376 -207 564 -440 147 -182 204 -266 267 -396 78 -162
109 -282 110 -434 1 -136 -16 -208 -72 -321 -43 -86 -52 -95 -69 -75 -20 23
-96 39 -156 31 -93 -11 -188 -66 -282 -163 -53 -54 -84 -79 -87 -71 -15 44
-39 195 -46 292 -9 120 -8 147 17 452 13 162 14 221 5 305 -14 134 -43 244
-87 335 -40 84 -157 240 -214 285 -22 18 -42 44 -46 58 -3 14 -19 41 -36 61
-35 42 -36 63 -7 91 29 26 42 25 139 -10z m-599 -1622 c62 -10 78 -16 78 -30
0 -9 14 -26 30 -38 47 -33 36 -39 -37 -18 -153 43 -613 49 -768 10 -44 -11
-82 -19 -84 -16 -6 5 29 44 50 55 14 7 141 23 329 42 88 9 332 6 402 -5z
m-1553 -19 c81 -10 141 -34 184 -73 15 -14 27 -27 27 -29 0 -2 -24 4 -54 14
-29 10 -87 24 -127 30 -86 14 -528 18 -639 6 l-75 -9 23 25 c27 29 74 37 282
47 156 7 262 4 379 -11z m2920 -204 c21 -51 25 -77 25 -170 1 -103 -2 -120
-46 -265 -26 -85 -58 -200 -72 -255 -70 -280 -169 -601 -201 -659 -44 -77
-101 -126 -138 -119 -54 11 -108 88 -143 208 -19 61 -101 73 -122 18 -6 -16
-13 -73 -15 -128 -9 -185 -97 -379 -286 -630 -95 -126 -225 -275 -240 -275 -9
0 -81 -66 -161 -146 -188 -188 -326 -311 -530 -469 -91 -71 -200 -157 -243
-193 l-79 -64 -92 27 c-72 21 -96 33 -111 55 -11 15 -75 96 -142 179 -67 83
-119 151 -115 151 4 0 59 -7 122 -16 156 -22 373 -15 485 16 156 42 347 149
458 255 77 74 127 143 127 175 0 31 -31 60 -63 60 -10 0 -55 -35 -100 -78
-106 -100 -190 -160 -308 -216 -129 -63 -191 -77 -349 -83 -153 -6 -302 12
-431 53 -107 34 -236 123 -317 219 -66 78 -96 95 -138 77 -22 -11 -28 -6 -81
56 -164 191 -251 337 -301 507 -51 170 -88 490 -99 855 l-6 205 46 -42 c109
-100 214 -125 506 -122 l203 3 16 -26 c14 -24 14 -27 -18 -66 -19 -24 -30 -47
-27 -56 4 -11 -12 -30 -51 -60 -67 -51 -152 -139 -209 -216 -47 -63 -153 -250
-153 -270 0 -26 42 -60 75 -60 38 0 62 24 100 100 15 30 46 82 68 115 48 70
248 275 270 275 8 0 35 -24 60 -53 64 -75 132 -109 228 -115 86 -5 139 9 218
55 50 30 52 30 210 7 79 -11 111 -12 137 -4 35 12 74 56 74 83 0 30 22 29 63
-1 23 -17 67 -49 98 -71 82 -58 174 -164 216 -247 31 -63 36 -85 41 -164 3
-54 0 -121 -8 -162 -11 -63 -10 -71 6 -89 21 -24 65 -25 93 -1 55 46 69 303
22 423 -61 160 -234 337 -426 438 l-60 32 -6 72 c-3 40 -5 73 -4 74 1 2 28 -2
61 -8 128 -24 541 7 599 45 58 38 131 153 169 266 25 77 50 244 44 302 l-3 33
85 22 c64 16 115 22 211 22 l126 1 26 -60 c17 -40 34 -64 51 -71 23 -11 31 -8
81 26 30 21 81 70 114 110 109 133 176 176 271 172 l65 -2 24 -60z m-2935 4
c82 -11 155 -41 188 -76 53 -56 29 -273 -51 -464 -54 -127 -36 -118 -266 -131
-435 -24 -551 23 -619 251 -24 82 -16 365 12 393 11 11 107 28 206 37 103 9
439 3 530 -10z m1547 7 c87 -16 152 -46 175 -81 24 -37 24 -246 0 -335 -24
-87 -61 -163 -99 -204 -29 -30 -41 -35 -122 -47 -49 -7 -171 -14 -270 -14
-232 0 -275 11 -355 93 -95 99 -142 227 -143 392 0 55 5 105 12 118 16 29 56
49 148 71 66 17 117 20 328 20 167 0 275 -4 326 -13z m-2504 -82 l50 -25 1
-337 c1 -372 1 -373 -53 -185 -47 163 -68 282 -69 403 -1 101 6 170 18 170 2
0 26 -11 53 -26z m1547 -116 c3 -13 6 -40 6 -61 0 -105 80 -322 135 -365 14
-11 25 -27 25 -35 0 -25 46 -72 95 -98 53 -27 51 -2 16 -213 -11 -65 -22 -120
-25 -123 -7 -8 -88 26 -110 45 -13 13 -36 17 -85 16 -54 -1 -80 -7 -141 -37
-159 -75 -206 -72 -291 21 -57 62 -88 109 -106 161 -11 31 -10 36 12 53 13 10
41 46 63 81 96 152 140 268 162 432 6 44 13 95 16 113 l5 32 108 0 c104 0 109
-1 115 -22z m1631 -1761 c-18 -159 -51 -284 -122 -457 -32 -80 -269 -555 -600
-1205 -82 -159 -152 -290 -158 -289 -5 0 -46 54 -91 118 -45 65 -119 160 -165
212 -46 52 -88 105 -94 118 -5 13 -51 68 -102 123 l-92 99 107 86 c59 46 170
132 247 190 156 117 194 151 481 421 260 246 497 504 556 606 12 22 26 37 31
34 4 -2 5 -28 2 -56z m-2327 -629 c26 -18 52 -37 57 -44 6 -6 81 -102 169
-213 87 -110 184 -229 216 -263 l58 -63 -57 -60 c-162 -173 -356 -395 -498
-572 -32 -39 -60 -72 -63 -72 -9 -2 9 494 36 984 15 288 19 335 30 335 3 0 26
-14 52 -32z m704 -688 c44 -13 70 -28 85 -47 11 -16 68 -82 127 -147 84 -94
104 -121 92 -128 -8 -4 -62 -73 -121 -152 l-106 -143 -62 19 c-36 11 -106 22
-164 25 l-101 6 -18 46 c-9 25 -36 88 -60 138 l-43 93 109 122 c60 68 122 137
137 155 34 38 42 39 125 13z m-416 -533 l52 -122 -33 -65 c-66 -132 -217 -522
-345 -895 -40 -115 -75 -217 -78 -225 -13 -33 -23 346 -18 672 l6 347 176 206
c97 113 179 205 183 205 3 0 29 -56 57 -123z m941 -44 c64 -87 125 -165 135
-173 18 -15 8 -35 -197 -435 -119 -231 -218 -421 -221 -424 -2 -2 -6 -2 -8 0
-1 2 -11 123 -20 269 -9 146 -24 344 -32 441 l-15 177 82 108 c104 137 149
194 155 194 2 0 57 -71 121 -157z"/>
<path d="M6845 6496 c-44 -20 -111 -81 -156 -142 -45 -61 -54 -98 -65 -256 -7
-105 -6 -109 20 -148 49 -74 30 -142 -65 -231 -56 -52 -61 -78 -24 -114 41
-41 77 -34 140 28 60 61 103 137 111 200 5 33 -1 64 -26 136 -58 167 -33 260
107 399 46 46 83 91 83 102 0 38 -67 52 -125 26z"/>
<path d="M5247 5055 c-52 -20 -292 -71 -414 -90 -191 -28 -431 -16 -678 35
-192 39 -225 43 -246 24 -29 -26 -24 -68 10 -97 60 -50 367 -107 623 -114 206
-7 306 4 532 53 209 46 273 67 307 100 76 73 -14 133 -134 89z"/>
<path d="M4236 4681 c-26 -29 -17 -71 21 -97 95 -64 457 -90 600 -43 80 26
110 91 58 125 -23 15 -37 15 -141 4 -125 -14 -238 -9 -375 15 -111 20 -142 19
-163 -4z"/>
<path d="M3755 6400 c-100 -26 -122 -36 -139 -62 -16 -26 -31 -111 -22 -127 4
-6 39 6 89 29 45 22 96 43 113 46 31 6 31 5 36 -40 8 -67 31 -98 71 -94 39 4
57 35 57 101 0 26 4 47 10 47 5 0 44 -11 86 -24 43 -14 81 -23 86 -20 33 21
-26 99 -104 138 -43 22 -65 26 -132 25 -45 0 -112 -8 -151 -19z"/>
<path d="M5160 6418 c-42 -12 -65 -31 -96 -80 -23 -36 -30 -68 -18 -81 3 -3
35 5 70 19 36 13 78 24 94 24 30 0 30 0 30 -58 0 -68 18 -92 67 -92 45 0 66
30 69 98 1 33 7 57 13 56 6 -1 19 -2 30 -2 10 -1 42 -18 71 -38 69 -47 86 -43
82 21 -3 59 -27 97 -68 107 -16 3 -57 14 -91 22 -69 18 -199 20 -253 4z"/>
</g>
</svg>
